<?xml version='1.0' encoding='utf-8'?>
<!DOCTYPE svg PUBLIC '-//W3C//DTD SVG 1.1//EN' 'http://www.w3.org/Graphics/SVG/1.1/DTD/svg11.dtd'>
<svg version="1.1" xmlns="http://www.w3.org/2000/svg" viewBox="0 0 512 512" xmlns:xlink="http://www.w3.org/1999/xlink" enable-background="new 0 0 512 512">
  <g>
    <path d="m306.1,96.3c61.5-42.6 107.6-56.2 127.6-37.3 8.3,7.8 21.3,7.4 29-0.8 7.8-8.3 7.8-21.7-0.8-29-66.3-56.6-201.2,49.3-205.9,53-4.7-3.7-141.8-108-206-53-8.6,7.4-8.6,20.8-0.8,29 7.8,8.3 20.8,8.6 29,0.8 20-18.9 66.2-5.3 127.6,37.3-102.4,9.1-196.4,46-196.4,107.1 0,11.3 9.2,20.5 20.5,20.5s20.5-9.2 20.5-20.5c0-22.8 53.7-54.1 142.1-64.6-35.3,36.7-70.1,83.4-88.8,137.7-3.7,10.7 1.9,22.8 12.7,26.1 14.6,4.4 23.2-4.2 26.1-12.7 18.7-54.4 56.5-100.9 92.8-135.9v307.4h-84.7c-11.3,0-20.5,9.2-20.5,20.5s9.2,20.5 20.5,20.5h210.5c11.3,0 20.5-9.2 20.5-20.5s-9.2-20.5-20.5-20.5h-84.7v-307.4c36.3,34.9 74,81.4 92.8,135.9 2.9,8.5 13.5,17.9 26.1,12.7 10.5-4.3 16.4-15.4 12.7-26.1-18.7-54.3-53.5-101-88.8-137.7 88.3,10.6 142,41.8 142,64.6 0,11.3 9.2,20.5 20.5,20.5 11.3,0 20.5-9.2 20.5-20.5 0.3-61.1-93.7-98-196.1-107.1z"/>
  </g>
</svg>
